<svg xmlns="http://www.w3.org/2000/svg" viewBox="0 0 600 700" role="img" aria-labelledby="title">
<title id="title">Việt Phục Studio — minh họa phom dáng ao-yem</title>
<desc>Hình vẽ giản lược từ mô tả danh mục; không phải ảnh hiện vật hoặc bản phục dựng lịch sử.</desc>
<defs><linearGradient id="paper" x2="1" y2="1"><stop stop-color="#F8F3EA"/><stop offset="1" stop-color="#E8DECE"/></linearGradient><radialGradient id="glow"><stop stop-color="#FFFDF7"/><stop offset="1" stop-color="#EFE5D5"/></radialGradient><filter id="shadow" x="-30%" y="-20%" width="160%" height="150%"><feDropShadow dx="0" dy="8" stdDeviation="7" flood-color="#504333" flood-opacity=".18"/></filter></defs>
<path fill="url(#paper)" d="M0 0h600v700H0z"/><path d="M58 642V276a242 242 0 0 1 484 0v366Z" fill="url(#glow)" stroke="#D7C9B5"/>
<path d="M40 660h520M42 676h516" stroke="#D1C0A7"/><ellipse cx="300" cy="626" rx="142" ry="12" fill="#B9A68B" opacity=".16"/>
<svg x="60" y="66" width="480" height="544" viewBox="75 108 210 240" overflow="visible" filter="url(#shadow)"><g data-workbook-garment="ao-yem" data-sleeve-cut="sleeveless"><defs><linearGradient id="catalog-ao-yem-cloth" x1="0" y1="0" x2="1" y2=".1"><stop stop-color="#7f4548"></stop><stop offset=".2" stop-color="#B95F66"></stop><stop offset=".41" stop-color="#c67b7b"></stop><stop offset=".56" stop-color="#B95F66"></stop><stop offset=".84" stop-color="#7f4548"></stop><stop offset="1" stop-color="#B95F66"></stop></linearGradient><linearGradient id="catalog-ao-yem-lining"><stop stop-color="#B7AB91"></stop><stop offset=".35" stop-color="#EDE3CC"></stop><stop offset=".58" stop-color="#F9F0DD"></stop><stop offset="1" stop-color="#C3B49A"></stop></linearGradient><linearGradient id="catalog-ao-yem-fold" x1="0" x2="0" y1="0" y2="1"><stop stop-color="#5c3539" stop-opacity="0"></stop><stop offset=".35" stop-color="#5c3539" stop-opacity=".25"></stop><stop offset="1" stop-color="#5c3539" stop-opacity=".65"></stop></linearGradient><linearGradient id="catalog-ao-yem-gold"><stop stop-color="#9B753E"></stop><stop offset=".3" stop-color="#E2CC91"></stop><stop offset=".52" stop-color="#F0DCAA"></stop><stop offset=".75" stop-color="#BE9B54"></stop><stop offset="1" stop-color="#E1C283"></stop></linearGradient><pattern id="catalog-ao-yem-weave" width="3" height="3" patternUnits="userSpaceOnUse"><path d="M0 .4H3M.4 0V3" stroke="#FFF4D6" stroke-width=".3"></path></pattern><pattern id="catalog-ao-yem-damask" width="31" height="37" patternUnits="userSpaceOnUse"><path d="M15.5 5Q24 13 15.5 23Q7 13 15.5 5ZM10 14Q15.5 10 21 14M15.5 10V20M0 32Q5 28 10 32M21 32Q26 28 31 32" fill="none" stroke="#CEAD6D" stroke-width=".55"></path></pattern><pattern id="catalog-ao-yem-quilt" width="18" height="24" patternUnits="userSpaceOnUse"><path d="M0 12L9 0L18 12L9 24Z" fill="none" stroke="#5c3539" stroke-width=".8" opacity=".5"></path><path d="M1 12L9 1L17 12" fill="none" stroke="#c67b7b" stroke-width=".7"></path></pattern><pattern id="catalog-ao-yem-hemband" width="13" height="38" patternUnits="userSpaceOnUse" patternTransform="rotate(-19)"><path fill="#CCB580" d="M0 0h13v38H0z"></path><path stroke="#687D83" stroke-width="3" d="M2 0V38"></path><path stroke="#8F5245" stroke-width="3" d="M7 0V38"></path><path stroke="#EBDBA8" stroke-width="1" d="M11 0V38"></path></pattern><clipPath id="catalog-ao-yem-body-clip"><path d="M137 146Q153 139 165 137Q180 147 195 137Q207 139 223 146C226 188 221 223 220 263Q231 370 244 474Q180 491 116 474Q129 370 140 263C139 223 134 188 137 146Z"></path></clipPath><clipPath id="catalog-ao-yem-sleeve-clip"><path d="M145 146C127 144 118 180 117 226L123 302Q134 307 143 302L140 236Q146 199 153 164Z"></path></clipPath></defs><g data-garment-piece="halter"><path d="M172 130L168 117M188 130L192 117" stroke="#7f4548" stroke-width="2.5"></path><g><path d="M171 128Q180 140 189 128C194 147 205 172 215 191Q214 224 180 280Q146 224 145 191C155 172 166 147 171 128Z" fill="url(#catalog-ao-yem-cloth)" stroke="#764343" stroke-width=".65" stroke-linejoin="round"></path><path d="M171 128Q180 140 189 128C194 147 205 172 215 191Q214 224 180 280Q146 224 145 191C155 172 166 147 171 128Z" fill="url(#catalog-ao-yem-weave)" opacity=".065"></path></g><path d="M172 131Q180 141 188 131M147 196Q158 238 180 272Q202 238 213 196" fill="none" stroke="#c67b7b" stroke-width="1.2"></path><path d="M170 159Q156 194 166 224M193 172Q200 208 183 255" fill="none" stroke="#7f4548" stroke-opacity=".4" stroke-width="2"></path><path d="M146 196L140 206M214 196L220 206" stroke="#7f4548" stroke-width="2"></path></g></g></svg>
</svg>
