<svg xmlns="http://www.w3.org/2000/svg" viewBox="0 0 600 700" role="img" aria-labelledby="title">
<title id="title">vlaura — minh họa phom dáng hai</title>
<desc>Hình vẽ giản lược từ mô tả danh mục; không phải ảnh hiện vật hoặc bản phục dựng lịch sử.</desc>
<defs><linearGradient id="paper" x2="1" y2="1"><stop stop-color="#F8F3EA"/><stop offset="1" stop-color="#E8DECE"/></linearGradient><radialGradient id="glow"><stop stop-color="#FFFDF7"/><stop offset="1" stop-color="#EFE5D5"/></radialGradient><filter id="shadow" x="-30%" y="-20%" width="160%" height="150%"><feDropShadow dx="0" dy="8" stdDeviation="7" flood-color="#504333" flood-opacity=".18"/></filter></defs>
<path fill="url(#paper)" d="M0 0h600v700H0z"/><path d="M58 642V276a242 242 0 0 1 484 0v366Z" fill="url(#glow)" stroke="#D7C9B5"/>
<path d="M40 660h520M42 676h516" stroke="#D1C0A7"/><ellipse cx="300" cy="626" rx="142" ry="12" fill="#B9A68B" opacity=".16"/>
<svg x="86" y="160" width="428" height="370" viewBox="128 462 104 62" overflow="visible" filter="url(#shadow)"><g data-mannequin-accessory="hai"><g><path d="M174 489Q154 487 145 496Q137 500 135 483Q130 511 143 513L176 510Z" fill="#8D3025" stroke="#CEAD68" stroke-width="1.3"></path><path d="M144 502Q155 487 165 502Q156 495 149 507M147 508L167 505" fill="none" stroke="#CEAD68"></path><circle cx="143" cy="497" r="2" fill="#EEDCAD"></circle></g><g transform="translate(360 0) scale(-1 1)"><path d="M174 489Q154 487 145 496Q137 500 135 483Q130 511 143 513L176 510Z" fill="#8D3025" stroke="#CEAD68" stroke-width="1.3"></path><path d="M144 502Q155 487 165 502Q156 495 149 507M147 508L167 505" fill="none" stroke="#CEAD68"></path><circle cx="143" cy="497" r="2" fill="#EEDCAD"></circle></g></g></svg>
</svg>
