<svg xmlns="http://www.w3.org/2000/svg" viewBox="0 0 600 700" role="img" aria-labelledby="title">
<title id="title">vlaura — minh họa phom dáng quai-thao</title>
<desc>Hình vẽ giản lược từ mô tả danh mục; không phải ảnh hiện vật hoặc bản phục dựng lịch sử.</desc>
<defs><linearGradient id="paper" x2="1" y2="1"><stop stop-color="#F8F3EA"/><stop offset="1" stop-color="#E8DECE"/></linearGradient><radialGradient id="glow"><stop stop-color="#FFFDF7"/><stop offset="1" stop-color="#EFE5D5"/></radialGradient><filter id="shadow" x="-30%" y="-20%" width="160%" height="150%"><feDropShadow dx="0" dy="8" stdDeviation="7" flood-color="#504333" flood-opacity=".18"/></filter></defs>
<path fill="url(#paper)" d="M0 0h600v700H0z"/><path d="M58 642V276a242 242 0 0 1 484 0v366Z" fill="url(#glow)" stroke="#D7C9B5"/>
<path d="M40 660h520M42 676h516" stroke="#D1C0A7"/><ellipse cx="300" cy="626" rx="142" ry="12" fill="#B9A68B" opacity=".16"/>
<svg x="86" y="160" width="428" height="370" viewBox="96 24 168 166" overflow="visible" filter="url(#shadow)"><g data-mannequin-accessory="quai-thao"><path d="M110 53Q180 26 250 53V69Q180 97 110 69Z" fill="#BD9D60" stroke="#957540"></path><ellipse cx="180" cy="53" rx="70" ry="21" fill="#E4D1A4" stroke="#AA8A50"></ellipse><ellipse cx="180" cy="52" rx="58" ry="15" fill="none" stroke="#C5AE7A"></ellipse><path d="M125 71C103 175 176 190 153 89M235 71C257 175 184 190 207 89" fill="none" stroke="#655275" stroke-width="4"></path><path d="M137 144l-4 21m7-20l-2 23M223 144l4 21m-7-20l2 23" stroke="#655275" stroke-width="2"></path></g></svg>
</svg>
