<svg xmlns="http://www.w3.org/2000/svg" viewBox="0 0 600 700" role="img" aria-labelledby="title">
<title id="title">Việt Phục Studio — minh họa phom dáng vien-linh</title>
<desc>Hình vẽ giản lược từ mô tả danh mục; không phải ảnh hiện vật hoặc bản phục dựng lịch sử.</desc>
<defs><linearGradient id="paper" x2="1" y2="1"><stop stop-color="#F8F3EA"/><stop offset="1" stop-color="#E8DECE"/></linearGradient><radialGradient id="glow"><stop stop-color="#FFFDF7"/><stop offset="1" stop-color="#EFE5D5"/></radialGradient><filter id="shadow" x="-30%" y="-20%" width="160%" height="150%"><feDropShadow dx="0" dy="8" stdDeviation="7" flood-color="#504333" flood-opacity=".18"/></filter></defs>
<path fill="url(#paper)" d="M0 0h600v700H0z"/><path d="M58 642V276a242 242 0 0 1 484 0v366Z" fill="url(#glow)" stroke="#D7C9B5"/>
<path d="M40 660h520M42 676h516" stroke="#D1C0A7"/><ellipse cx="300" cy="626" rx="142" ry="12" fill="#B9A68B" opacity=".16"/>
<svg x="60" y="66" width="480" height="544" viewBox="32 15 296 490" overflow="visible" filter="url(#shadow)"><g data-workbook-garment="vien-linh" data-sleeve-cut="hanging"><defs><linearGradient id="catalog-vien-linh-cloth" x1="0" y1="0" x2="1" y2=".1"><stop stop-color="#2e4248"></stop><stop offset=".2" stop-color="#365B66"></stop><stop offset=".41" stop-color="#5d787b"></stop><stop offset=".56" stop-color="#365B66"></stop><stop offset=".84" stop-color="#2e4248"></stop><stop offset="1" stop-color="#365B66"></stop></linearGradient><linearGradient id="catalog-vien-linh-lining"><stop stop-color="#B7AB91"></stop><stop offset=".35" stop-color="#EDE3CC"></stop><stop offset=".58" stop-color="#F9F0DD"></stop><stop offset="1" stop-color="#C3B49A"></stop></linearGradient><linearGradient id="catalog-vien-linh-fold" x1="0" x2="0" y1="0" y2="1"><stop stop-color="#253439" stop-opacity="0"></stop><stop offset=".35" stop-color="#253439" stop-opacity=".25"></stop><stop offset="1" stop-color="#253439" stop-opacity=".65"></stop></linearGradient><linearGradient id="catalog-vien-linh-gold"><stop stop-color="#9B753E"></stop><stop offset=".3" stop-color="#E2CC91"></stop><stop offset=".52" stop-color="#F0DCAA"></stop><stop offset=".75" stop-color="#BE9B54"></stop><stop offset="1" stop-color="#E1C283"></stop></linearGradient><pattern id="catalog-vien-linh-weave" width="3" height="3" patternUnits="userSpaceOnUse"><path d="M0 .4H3M.4 0V3" stroke="#FFF4D6" stroke-width=".3"></path></pattern><pattern id="catalog-vien-linh-damask" width="31" height="37" patternUnits="userSpaceOnUse"><path d="M15.5 5Q24 13 15.5 23Q7 13 15.5 5ZM10 14Q15.5 10 21 14M15.5 10V20M0 32Q5 28 10 32M21 32Q26 28 31 32" fill="none" stroke="#CEAD6D" stroke-width=".55"></path></pattern><pattern id="catalog-vien-linh-quilt" width="18" height="24" patternUnits="userSpaceOnUse"><path d="M0 12L9 0L18 12L9 24Z" fill="none" stroke="#253439" stroke-width=".8" opacity=".5"></path><path d="M1 12L9 1L17 12" fill="none" stroke="#5d787b" stroke-width=".7"></path></pattern><pattern id="catalog-vien-linh-hemband" width="13" height="38" patternUnits="userSpaceOnUse" patternTransform="rotate(-19)"><path fill="#CCB580" d="M0 0h13v38H0z"></path><path stroke="#687D83" stroke-width="3" d="M2 0V38"></path><path stroke="#8F5245" stroke-width="3" d="M7 0V38"></path><path stroke="#EBDBA8" stroke-width="1" d="M11 0V38"></path></pattern><clipPath id="catalog-vien-linh-body-clip"><path d="M125 146Q153 139 165 137Q180 147 195 137Q207 139 235 146C238 188 233 223 232 263Q243 370 256 474Q180 491 104 474Q117 370 128 263C127 223 122 188 125 146Z"></path></clipPath><clipPath id="catalog-vien-linh-sleeve-clip"><path d="M133 146C108 143 90 191 77 233L66 278Q76 292 101 307Q109 344 133 356L144 329Q133 233 142 164Z"></path></clipPath></defs><g data-garment-piece="sleeve"><g><path d="M133 146C108 143 90 191 77 233L66 278Q76 292 101 307Q109 344 133 356L144 329Q133 233 142 164Z" fill="url(#catalog-vien-linh-cloth)" stroke="#324143" stroke-width=".65" stroke-linejoin="round"></path><path d="M133 146C108 143 90 191 77 233L66 278Q76 292 101 307Q109 344 133 356L144 329Q133 233 142 164Z" fill="url(#catalog-vien-linh-weave)" opacity=".065"></path></g><g clip-path="url(#catalog-vien-linh-sleeve-clip)"><path d="M122 163Q102 244 86 285M133 186Q108 280 126 361" fill="none" stroke="url(#catalog-vien-linh-fold)" stroke-width="7"></path><path d="M127 176Q113 246 93 279M133 243Q120 320 132 346" fill="none" stroke="#5d787b" stroke-width="1.4" opacity=".7"></path></g><path d="M69 277Q80 292 101 300" fill="none" stroke="#2e4248" stroke-width="4"></path><path d="M69 277Q80 292 101 300" fill="none" stroke="#5d787b" stroke-width="0.85"></path></g><g transform="translate(360 0) scale(-1 1)" data-garment-piece="sleeve"><g><path d="M133 146C108 143 90 191 77 233L66 278Q76 292 101 307Q109 344 133 356L144 329Q133 233 142 164Z" fill="url(#catalog-vien-linh-cloth)" stroke="#324143" stroke-width=".65" stroke-linejoin="round"></path><path d="M133 146C108 143 90 191 77 233L66 278Q76 292 101 307Q109 344 133 356L144 329Q133 233 142 164Z" fill="url(#catalog-vien-linh-weave)" opacity=".065"></path></g><g clip-path="url(#catalog-vien-linh-sleeve-clip)"><path d="M122 163Q102 244 86 285M133 186Q108 280 126 361" fill="none" stroke="url(#catalog-vien-linh-fold)" stroke-width="7"></path><path d="M127 176Q113 246 93 279M133 243Q120 320 132 346" fill="none" stroke="#5d787b" stroke-width="1.4" opacity=".7"></path></g><path d="M69 277Q80 292 101 300" fill="none" stroke="#2e4248" stroke-width="4"></path><path d="M69 277Q80 292 101 300" fill="none" stroke="#5d787b" stroke-width="0.85"></path></g><g><path d="M125 146Q153 139 165 137Q180 147 195 137Q207 139 235 146C238 188 233 223 232 263Q243 370 256 474Q180 491 104 474Q117 370 128 263C127 223 122 188 125 146Z" fill="url(#catalog-vien-linh-cloth)" stroke="#324143" stroke-width=".65" stroke-linejoin="round"></path><path d="M125 146Q153 139 165 137Q180 147 195 137Q207 139 235 146C238 188 233 223 232 263Q243 370 256 474Q180 491 104 474Q117 370 128 263C127 223 122 188 125 146Z" fill="url(#catalog-vien-linh-weave)" opacity=".065"></path></g><g clip-path="url(#catalog-vien-linh-body-clip)"><g fill="none" stroke-linecap="round"><g><path d="M134.35 251C140.16 316 127.71 402 121.07 475" stroke="url(#catalog-vien-linh-fold)" stroke-width="11" opacity=".55"></path><path d="M137.35 259Q146.35 376 124.07 475" stroke="#5d787b" stroke-width="1.1" opacity=".4"></path></g><g><path d="M155.25 251C158.4 316 151.65 402 148.05 475" stroke="url(#catalog-vien-linh-fold)" stroke-width="6" opacity=".55"></path><path d="M158.25 259Q167.25 376 151.05 475" stroke="#5d787b" stroke-width="1.1" opacity=".4"></path></g><g><path d="M189.9 251C188.64000000000001 316 191.34 402 192.78 475" stroke="url(#catalog-vien-linh-fold)" stroke-width="11" opacity=".55"></path><path d="M192.9 259Q201.9 376 195.78 475" stroke="#5d787b" stroke-width="1.1" opacity=".4"></path></g><g><path d="M215.75 251C211.2 316 220.95000000000002 402 226.15 475" stroke="url(#catalog-vien-linh-fold)" stroke-width="6" opacity=".55"></path><path d="M218.75 259Q227.75 376 229.15 475" stroke="#5d787b" stroke-width="1.1" opacity=".4"></path></g><g><path d="M229.5 251C223.2 316 236.70000000000002 402 243.9 475" stroke="url(#catalog-vien-linh-fold)" stroke-width="11" opacity=".55"></path><path d="M232.5 259Q241.5 376 246.9 475" stroke="#5d787b" stroke-width="1.1" opacity=".4"></path></g></g></g><path d="M166 133Q180 143 194 133L193 148Q180 162 167 148Z" fill="url(#catalog-vien-linh-lining)" stroke="#B5A687" stroke-width=".6"></path><path d="M165 137C165 162 195 162 195 137" fill="none" stroke="#2e4248" stroke-width="4"></path><path d="M165 137C165 162 195 162 195 137" fill="none" stroke="#5d787b" stroke-width="1.2"></path><g data-garment-piece="right-fastening"><path d="M195 140Q222 144 229 171L230 228" stroke="#2e4248" fill="none" stroke-width="1.4"></path><circle cx="225" cy="151" r="1.6" fill="#5d787b"></circle><circle cx="226.6" cy="169" r="1.6" fill="#5d787b"></circle><circle cx="228.2" cy="187" r="1.6" fill="#5d787b"></circle></g><path d="M129 270Q180 279 231 270" fill="none" stroke="#2e4248" stroke-width="8"></path><path d="M106 469Q180 483 254 469" fill="none" stroke="#5d787b" stroke-width="0.8" opacity=".8"></path></g></svg>
</svg>
